<svg id="Layer_1" data-name="Layer 1" xmlns="http://www.w3.org/2000/svg" viewBox="0 0 494.61 277.26"><defs><style>.cls-1{fill:#eb8023;}.cls-2,.cls-3{fill:#6e6e71;}.cls-2{fill-rule:evenodd;}</style></defs><title>Anu2</title><path class="cls-1" d="M1399.09,827q19.52-24.7,37.25-24.73A25.86,25.86,0,0,1,1452,807q6.58,4.76,10.44,15.73c1.78,5.09,2.65,12.91,2.65,23.43V896c0,7.36.58,12.39,1.74,15a10.36,10.36,0,0,0,4.31,5c1.95,1.17,5.64,1.78,11,1.78v4.55h-55v-4.55h2.32c5.19,0,8.83-.87,10.86-2.52a12.94,12.94,0,0,0,4.32-7.31c0.33-1.26.48-5.26,0.48-12V848.23q0-15.91-3.93-23.12t-13.31-7.17c-9.61,0-19.23,5.52-28.75,16.56V896c0,7.87.41,12.74,1.33,14.6a11.32,11.32,0,0,0,4.68,5.44c2,1.13,6,1.75,12.06,1.75v4.55h-55v-4.55h2.44c5.64,0,9.5-1.53,11.48-4.53S1379,904.48,1379,896V852.66q0-21-.9-25.56c-0.59-3.08-1.54-5.17-2.79-6.25a7.41,7.41,0,0,0-5.05-1.66,22.82,22.82,0,0,0-8.12,1.92l-1.83-4.61,33.52-14.25h5.22V827Z" transform="translate(-1359.18 -734.3)"/><path class="cls-1" d="M1526.46,827.1q12.18-12.78,14.33-14.64a42.68,42.68,0,0,1,11.77-7.52,32,32,0,0,1,12.52-2.69,26.87,26.87,0,0,1,18,6.39q7.53,6.32,10.08,18.47,12.5-15.33,21.13-20.08a36.06,36.06,0,0,1,17.69-4.78,27,27,0,0,1,15.74,4.78c4.55,3.17,8.16,8.39,10.86,15.6,1.78,4.91,2.64,12.65,2.64,23.16V896c0,7.31.54,12.31,1.59,15a10.66,10.66,0,0,0,4.5,4.78c2.21,1.3,5.73,2,10.7,2v4.55h-54.91v-4.55h2.33c4.76,0,8.49-1,11.18-3a11.24,11.24,0,0,0,4-6.47q0.5-2.16.5-12.35V845.8c0-9.51-1.07-16.21-3.27-20.12-3.14-5.44-8.2-8.13-15.17-8.13a28.11,28.11,0,0,0-12.92,3.34c-4.35,2.26-9.57,6.44-15.74,12.57l-0.25,1.39,0.25,5.47V896c0,8,.45,12.91,1.28,14.88a10.66,10.66,0,0,0,4.81,4.91c2.32,1.3,6.34,2,12,2v4.55h-56.23v-4.55c6.18,0,10.4-.79,12.73-2.31a11.92,11.92,0,0,0,4.77-6.87c0.41-1.48.61-5.66,0.61-12.61V845.8c0-9.51-1.32-16.34-4-20.47a16.9,16.9,0,0,0-14.91-8.18,25.72,25.72,0,0,0-13,3.7q-10.08,5.6-15.54,12.61V896c0,7.62.54,12.61,1.53,14.88a10.8,10.8,0,0,0,4.48,5.16c2,1.13,6,1.75,12.11,1.75v4.55h-55v-4.55c5.1,0,8.66-.61,10.69-1.75a10.77,10.77,0,0,0,4.6-5.47c1-2.53,1.58-7.35,1.58-14.57V851.4c0-12.83-.37-21.08-1.08-24.82-0.58-2.83-1.5-4.74-2.7-5.78a7.12,7.12,0,0,0-5-1.62,22.68,22.68,0,0,0-8.13,1.92l-1.81-4.61,33.48-14.25h5.21V827.1Z" transform="translate(-1359.18 -734.3)"/><path class="cls-1" d="M1740.17,895l23.91-54.64-6.3-17.17c-1.95-5.08-4.48-8.6-7.66-10.56-1.79-1.22-5.1-1.91-10-2.17v-4.74h53v4.74c-5.84.26-10,1.34-12.39,3.3-1.61,1.35-2.44,3.52-2.44,6.48a14.74,14.74,0,0,0,1,5.21l25.23,67,23.41-64.59c1.61-4.57,2.45-8.22,2.45-11a5.45,5.45,0,0,0-2.37-4.3c-1.57-1.3-4.68-2-9.27-2.17v-4.74h35v4.74q-10.56,1.64-15.53,15l-37.13,100.5h-5l-27.8-74.51-31,72Z" transform="translate(-1359.18 -734.3)"/><path class="cls-2" d="M1688.82,814.25c2-34,13.41-58.7,28.32-80-21.55,46.62-21.81,87.89,6.74,122.48,30.72,44.18,44.79,81.59,36.65,154.78,2-49.76-24.7-91.36-51.16-128.49q-20.55-32.62-20.55-68.82" transform="translate(-1359.18 -734.3)"/><path class="cls-3" d="M1364.05,938.32a14.45,14.45,0,0,1,10.79-4.33q8.76,0,12.81,5.81a12.66,12.66,0,0,1,2.4,6.55h-7.33a10,10,0,0,0-1.8-3.81,7.23,7.23,0,0,0-5.81-2.29,7.16,7.16,0,0,0-6.18,3.23q-2.26,3.23-2.26,9.13t2.39,8.85a7.48,7.48,0,0,0,6.07,2.94,6.87,6.87,0,0,0,5.75-2.52,11.08,11.08,0,0,0,1.82-4.07H1390a15.81,15.81,0,0,1-4.82,9.33,14,14,0,0,1-9.93,3.6q-7.49,0-11.78-4.86t-4.29-13.38Q1359.18,943.3,1364.05,938.32Z" transform="translate(-1359.18 -734.3)"/><path class="cls-3" d="M1427.61,934.66h7.33v28.79h17.52v6.31h-24.86v-35.1Z" transform="translate(-1359.18 -734.3)"/><path class="cls-3" d="M1495.79,969.75h-7.29v-35.1h7.29v35.1Z" transform="translate(-1359.18 -734.3)"/><path class="cls-3" d="M1534.22,934.66h7.69l13.93,24.47V934.66h6.83v35.1h-7.33l-14.29-24.9v24.9h-6.83v-35.1Z" transform="translate(-1359.18 -734.3)"/><path class="cls-3" d="M1607.95,969.75h-7.29v-35.1h7.29v35.1Z" transform="translate(-1359.18 -734.3)"/><path class="cls-3" d="M1649.85,938.32a14.45,14.45,0,0,1,10.79-4.33q8.76,0,12.82,5.81a12.67,12.67,0,0,1,2.4,6.55h-7.33a10,10,0,0,0-1.8-3.81,8,8,0,0,0-12,.94q-2.26,3.23-2.26,9.13t2.39,8.85a7.48,7.48,0,0,0,6.07,2.94,6.87,6.87,0,0,0,5.75-2.52,11.08,11.08,0,0,0,1.82-4.07h7.29a15.81,15.81,0,0,1-4.82,9.33,14,14,0,0,1-9.93,3.6q-7.49,0-11.78-4.86T1645,952.49Q1645,943.3,1649.85,938.32Z" transform="translate(-1359.18 -734.3)"/></svg>